<?xml version="1.0" standalone="no"?>
<!DOCTYPE svg PUBLIC "-//W3C//DTD SVG 20010904//EN"
 "http://www.w3.org/TR/2001/REC-SVG-20010904/DTD/svg10.dtd">
<svg version="1.0" xmlns="http://www.w3.org/2000/svg"
 width="612.000000pt" height="612.000000pt" viewBox="0 0 612.000000 612.000000"
 preserveAspectRatio="xMidYMid meet">
<metadata>
Created by potrace 1.14, written by Peter Selinger 2001-2017
</metadata>
<g transform="translate(0.000000,612.000000) scale(0.100000,-0.100000)"
fill="#000000" stroke="none">
<path d="M2919 3919 c-19 -16 -20 -18 -4 -10 34 17 51 31 39 31 -7 0 -22 -9
-35 -21z"/>
<path d="M2820 3850 c0 -5 4 -10 9 -10 6 0 13 5 16 10 3 6 -1 10 -9 10 -9 0
-16 -4 -16 -10z"/>
<path d="M2775 3820 c-3 -5 1 -10 9 -10 9 0 16 5 16 10 0 6 -4 10 -9 10 -6 0
-13 -4 -16 -10z"/>
<path d="M2723 3762 c-24 -22 -43 -44 -43 -49 0 -5 -10 -19 -22 -31 -35 -32
-44 -45 -59 -85 -7 -20 -16 -37 -19 -37 -4 0 -13 -18 -20 -40 -7 -22 -17 -40
-22 -40 -4 0 -8 -27 -8 -61 0 -37 -4 -58 -10 -54 -7 4 -10 -252 -10 -762 l0
-768 -24 -58 c-41 -99 -113 -189 -198 -245 l-38 -25 2 -161 3 -161 145 1 c84
1 185 9 240 18 110 19 272 71 359 116 l61 30 84 -39 c46 -22 123 -52 172 -66
151 -44 396 -73 494 -60 l50 7 0 155 c0 167 0 165 -55 194 -11 5 -5 -3 13 -19
25 -22 33 -36 29 -53 -4 -23 -4 -23 -6 2 -1 22 -5 25 -29 21 -18 -2 -33 2 -43
14 -13 16 -12 16 8 6 26 -14 33 -15 33 -4 0 5 -11 15 -25 22 -19 10 -22 16
-14 27 11 13 5 18 -16 13 -44 -9 -58 -8 -80 6 -14 9 -23 20 -20 24 3 5 1 11
-5 15 -14 9 -13 23 3 28 6 2 4 3 -6 1 -14 -2 -16 2 -11 18 6 21 6 21 -17 -1
-35 -32 -66 -27 -60 12 2 12 -37 8 -42 -5 -4 -10 -6 -10 -6 0 -1 7 6 15 14 18
11 5 13 10 5 19 -16 19 15 42 35 25 12 -10 12 -7 -1 19 -14 29 -14 36 5 99 40
133 42 170 39 987 l-3 790 -75 -75 c-41 -41 -86 -89 -100 -107 -14 -18 -28
-32 -32 -33 -15 0 -8 38 7 44 8 3 15 10 15 16 0 7 -8 6 -22 -2 -13 -7 -27 -11
-32 -10 -5 2 -4 -3 3 -12 8 -10 9 -16 1 -21 -5 -3 -10 -1 -10 4 0 6 -18 11
-40 11 l-40 0 0 40 0 40 -40 0 c-33 0 -40 3 -40 20 0 17 -7 20 -40 20 -33 0
-40 3 -40 20 0 17 -7 20 -40 20 -33 0 -40 3 -40 20 0 17 -7 20 -40 20 -33 0
-40 3 -40 20 0 17 -7 20 -40 20 -33 0 -40 3 -40 20 0 17 -7 20 -44 20 l-44 0
4 43 c2 23 1 34 -2 25 -7 -23 -22 -23 -26 -1 -2 13 -12 7 -45 -25z m37 -17
c-7 -8 -16 -12 -21 -9 -13 8 -1 24 18 24 13 0 13 -3 3 -15z m619 -385 c0 -10
-3 -8 -9 5 -12 27 -12 43 0 25 5 -8 9 -22 9 -30z"/>
<path d="M4165 3698 c4 -24 11 -48 16 -54 5 -6 7 -20 3 -30 -5 -15 -4 -16 4
-4 6 8 9 28 6 45 -2 19 1 14 10 -15 8 -25 14 -39 15 -31 1 12 3 12 14 -1 6 -9
39 -30 72 -48 99 -51 105 -56 175 -122 28 -25 50 -51 50 -56 0 -5 7 -16 17
-23 9 -8 22 -29 30 -46 14 -34 33 -44 33 -18 0 8 -4 23 -9 33 -5 9 -25 52 -46
94 -65 134 -195 251 -329 298 -33 11 -61 20 -63 20 -3 0 -2 -19 2 -42z"/>
<path d="M2513 3460 c0 -36 2 -50 4 -32 2 17 2 47 0 65 -2 17 -4 3 -4 -33z"/>
<path d="M4616 3237 c3 -10 9 -15 12 -12 3 3 0 11 -7 18 -10 9 -11 8 -5 -6z"/>
<path d="M3611 1774 c0 -11 3 -14 6 -6 3 7 2 16 -1 19 -3 4 -6 -2 -5 -13z"/>
<path d="M3651 1704 c0 -11 3 -14 6 -6 3 7 2 16 -1 19 -3 4 -6 -2 -5 -13z"/>
<path d="M3670 1684 c0 -6 7 -19 16 -30 14 -18 14 -18 3 6 -14 31 -19 36 -19
24z"/>
<path d="M3716 1607 c10 -15 23 -27 28 -27 12 0 -18 43 -34 48 -8 3 -6 -5 6
-21z"/>
<path d="M3684 1594 c3 -9 6 -18 6 -20 0 -2 7 -4 15 -4 13 0 13 3 3 20 -15 24
-33 27 -24 4z"/>
</g>
</svg>
